<?xml version="1.0" encoding="UTF-8" ?>
<!DOCTYPE svg PUBLIC "-//W3C//DTD SVG 1.1//EN" "http://www.w3.org/Graphics/SVG/1.1/DTD/svg11.dtd">
<svg width="1242pt" height="869pt" viewBox="0 0 1242 869" version="1.1" xmlns="http://www.w3.org/2000/svg">
<g id="#9b99a6ff">
<path fill="#9b99a6" opacity="1.00" d=" M 189.32 50.33 C 194.26 45.33 200.96 42.18 208.02 41.87 C 217.66 42.28 228.10 46.31 232.86 55.22 C 239.13 66.09 237.69 80.61 229.80 90.27 C 227.84 88.18 225.93 85.94 223.44 84.47 C 221.06 83.30 217.30 84.24 216.77 87.16 C 215.85 91.33 217.83 95.42 219.87 98.95 C 214.70 100.29 209.36 100.64 204.04 100.17 C 190.96 97.97 180.09 86.14 178.99 72.93 C 179.48 64.43 184.00 56.76 189.32 50.33 Z" />
<path fill="#9b99a6" opacity="1.00" d=" M 298.69 174.85 C 304.56 173.96 310.02 171.22 316.00 170.79 C 329.79 170.25 343.86 171.27 356.94 175.95 C 360.27 177.41 363.79 179.24 365.63 182.52 C 358.99 184.16 352.69 186.92 346.29 189.28 C 322.46 198.91 298.95 209.56 276.99 222.97 C 270.65 226.79 265.28 231.93 259.44 236.43 C 256.24 239.00 252.88 241.42 250.10 244.46 C 248.87 233.28 250.46 221.60 255.33 211.41 C 259.16 204.56 263.60 197.68 270.11 193.12 C 271.72 191.60 273.22 189.97 274.78 188.41 C 281.68 182.34 290.06 177.94 298.69 174.85 Z" />
<path fill="#9b99a6" opacity="1.00" d=" M 689.87 250.61 C 703.74 248.12 717.42 260.28 718.29 273.97 C 718.26 277.99 718.74 282.18 717.07 285.97 C 715.03 290.85 712.15 295.74 707.53 298.58 C 703.37 301.69 698.09 302.57 693.06 303.04 C 687.91 302.05 682.06 301.04 678.41 296.95 C 682.21 293.31 686.35 288.75 685.99 283.11 C 686.09 280.86 683.87 279.65 682.12 278.86 C 677.54 276.86 672.26 277.83 668.02 280.19 C 666.90 272.06 669.38 263.17 675.59 257.59 C 679.43 253.81 684.39 250.96 689.87 250.61 Z" />
<path fill="#9b99a6" opacity="1.00" d=" M 594.56 277.05 C 602.87 275.63 611.06 278.98 618.42 282.48 C 625.43 285.60 630.96 291.09 637.21 295.34 C 643.20 301.27 647.25 309.11 649.18 317.29 C 649.24 324.02 651.26 330.74 649.62 337.46 C 649.10 345.18 646.25 352.42 643.75 359.66 C 641.50 364.77 639.00 369.98 634.89 373.90 C 632.34 376.34 630.09 379.48 626.37 380.12 C 625.93 373.25 624.38 366.51 623.24 359.74 C 618.91 337.40 612.53 315.42 603.43 294.55 C 600.75 288.59 598.27 282.47 594.56 277.05 Z" />
<path fill="#9b99a6" opacity="1.00" d=" M 180.51 466.50 C 187.90 463.30 196.46 464.97 203.30 468.75 C 214.05 474.60 224.19 481.56 233.55 489.44 C 246.17 500.11 255.87 513.72 264.10 527.94 C 270.76 539.70 276.89 552.38 277.77 566.08 C 278.43 575.69 272.78 584.51 265.78 590.59 C 257.81 596.79 250.26 603.74 241.10 608.19 C 233.93 611.77 225.96 613.46 218.02 614.12 C 199.79 613.89 182.23 605.90 168.62 594.03 C 172.48 591.45 176.93 588.11 177.01 583.00 C 178.19 572.96 168.01 564.20 158.39 565.25 C 155.23 567.31 152.83 570.32 150.33 573.10 C 144.45 563.58 139.63 552.50 140.90 541.07 C 144.00 521.31 150.45 501.67 162.27 485.34 C 163.52 483.92 163.85 482.09 163.88 480.26 C 169.33 475.59 173.67 469.31 180.51 466.50 Z" />
<path fill="#9b99a6" opacity="1.00" d=" M 82.24 597.16 C 86.47 594.72 91.35 593.89 96.07 592.91 C 105.91 592.88 115.15 596.87 123.91 600.99 C 129.29 603.89 133.13 609.29 134.99 615.04 C 138.61 625.60 138.06 637.62 132.52 647.43 C 129.96 653.20 125.38 657.63 120.82 661.85 C 111.97 669.32 99.28 671.27 88.37 667.76 C 82.58 665.27 76.76 662.26 72.61 657.37 C 66.41 649.69 62.48 639.96 62.68 630.00 C 62.45 616.59 70.32 603.35 82.24 597.16 Z" />
</g>
<g id="#f79727ff">
<path fill="#f79727" opacity="1.00" d=" M 216.77 87.16 C 217.30 84.24 221.06 83.30 223.44 84.47 C 225.93 85.94 227.84 88.18 229.80 90.27 C 234.10 95.24 239.10 99.56 243.26 104.66 C 253.82 116.52 263.69 128.98 273.63 141.35 C 282.51 152.11 291.35 162.90 299.98 173.86 C 299.66 174.10 299.01 174.60 298.69 174.85 C 290.06 177.94 281.68 182.34 274.78 188.41 C 273.72 187.06 272.63 185.73 271.69 184.30 C 257.81 162.31 244.33 140.06 231.91 117.21 C 228.07 111.01 223.53 105.27 219.87 98.95 C 217.83 95.42 215.85 91.33 216.77 87.16 Z" />
<path fill="#f79727" opacity="1.00" d=" M 668.02 280.19 C 672.26 277.83 677.54 276.86 682.12 278.86 C 683.87 279.65 686.09 280.86 685.99 283.11 C 686.35 288.75 682.21 293.31 678.41 296.95 C 671.34 303.16 663.61 308.57 655.73 313.69 C 653.68 315.12 651.51 316.37 649.18 317.29 C 647.25 309.11 643.20 301.27 637.21 295.34 C 646.81 289.04 658.19 286.12 668.02 280.19 Z" />
<path fill="#f79727" opacity="1.00" d=" M 158.39 565.25 C 168.01 564.20 178.19 572.96 177.01 583.00 C 176.93 588.11 172.48 591.45 168.62 594.03 C 162.07 597.96 155.36 601.65 149.08 606.01 C 144.45 609.11 140.06 612.63 134.99 615.04 C 133.13 609.29 129.29 603.89 123.91 600.99 C 126.23 596.52 130.11 593.14 133.53 589.53 C 138.88 583.79 145.38 579.23 150.33 573.10 C 152.83 570.32 155.23 567.31 158.39 565.25 Z" />
</g>
<g id="#787880ff">
<path fill="#787880" opacity="1.00" d=" M 392.70 177.41 C 407.33 174.89 422.22 175.61 436.99 175.78 C 475.73 178.45 514.23 191.80 544.52 216.45 C 547.21 218.40 549.67 220.64 551.94 223.07 C 554.64 226.09 558.51 227.85 560.82 231.25 C 563.60 235.41 567.83 238.29 570.70 242.38 C 575.96 248.87 580.92 255.60 585.44 262.64 C 588.75 267.27 591.07 272.54 594.56 277.05 C 598.27 282.47 600.75 288.59 603.43 294.55 C 612.53 315.42 618.91 337.40 623.24 359.74 C 624.38 366.51 625.93 373.25 626.37 380.12 C 625.86 391.05 628.17 401.93 626.85 412.85 C 625.92 418.96 626.76 425.21 625.58 431.31 C 623.95 442.22 619.14 452.35 614.30 462.17 C 612.17 467.25 606.91 469.78 602.60 472.72 C 598.00 475.81 591.87 478.54 586.52 475.63 C 578.26 470.70 574.50 461.01 572.76 451.97 C 570.37 441.79 572.60 431.27 570.97 421.01 C 570.90 413.31 570.06 405.67 569.58 398.00 C 567.51 378.45 565.40 358.49 557.60 340.22 C 554.91 333.19 550.19 327.24 545.48 321.47 C 537.83 314.39 528.75 308.93 519.05 305.16 C 505.72 301.35 491.90 298.83 478.00 299.17 C 461.41 298.75 445.02 302.17 429.05 306.29 C 412.57 310.51 396.97 317.42 381.65 324.68 C 369.30 329.86 357.63 336.46 345.77 342.65 C 338.95 346.36 332.17 350.23 326.08 355.08 C 315.69 362.91 304.66 370.17 296.20 380.19 C 287.12 390.99 278.98 403.41 276.82 417.63 C 274.00 437.90 278.24 458.51 285.81 477.33 C 292.02 491.92 299.90 505.84 309.80 518.27 C 313.90 524.07 319.07 528.96 323.45 534.54 C 328.32 540.03 334.15 544.47 339.57 549.36 C 345.83 554.13 352.51 558.33 358.64 563.29 C 364.98 567.75 368.55 575.41 369.20 583.01 C 369.01 590.35 363.72 596.07 358.21 600.28 C 353.64 603.61 348.14 605.35 342.73 606.75 C 334.50 607.59 326.23 606.65 318.00 606.17 C 305.06 604.66 292.07 602.25 280.02 597.15 C 275.17 595.20 270.71 592.38 265.78 590.59 C 272.78 584.51 278.43 575.69 277.77 566.08 C 276.89 552.38 270.76 539.70 264.10 527.94 C 255.87 513.72 246.17 500.11 233.55 489.44 C 224.19 481.56 214.05 474.60 203.30 468.75 C 196.46 464.97 187.90 463.30 180.51 466.50 C 173.67 469.31 169.33 475.59 163.88 480.26 C 162.53 475.03 162.80 469.63 162.44 464.30 C 161.49 458.62 161.81 452.85 161.51 447.13 C 160.41 437.79 160.82 428.37 160.67 418.99 C 160.45 402.12 160.74 385.20 163.33 368.50 C 165.51 354.97 170.65 342.08 176.71 329.85 C 183.33 316.12 192.03 303.52 201.74 291.81 C 209.34 283.40 216.61 274.61 225.26 267.20 C 229.56 264.22 232.62 259.83 236.95 256.88 C 241.29 252.69 246.60 249.49 250.10 244.46 C 252.88 241.42 256.24 239.00 259.44 236.43 C 265.28 231.93 270.65 226.79 276.99 222.97 C 298.95 209.56 322.46 198.91 346.29 189.28 C 352.69 186.92 358.99 184.16 365.63 182.52 C 374.82 181.76 383.50 178.14 392.70 177.41 Z" />
</g>
</svg>
